<svg width="1380" height="850" viewBox="0 0 1380 850" fill="none" xmlns="http://www.w3.org/2000/svg">
<path d="M-47.75 5.5L-52.7687 3.44414C-62.8497 -0.68543 -74.1503 -0.685429 -84.2313 3.44414C-99.8185 9.82925 -110 25.0027 -110 41.847V933H1550V41.847C1550 25.0027 1539.82 9.82925 1524.23 3.44414C1514.15 -0.685429 1502.85 -0.685427 1492.77 3.44414L1487.75 5.5C1474.45 10.947 1459.55 10.947 1446.25 5.5C1432.95 0.0529847 1418.05 0.0529847 1404.75 5.5C1391.45 10.947 1376.55 10.947 1363.25 5.5C1349.95 0.0529847 1335.05 0.0529847 1321.75 5.5C1308.45 10.947 1293.55 10.947 1280.25 5.5C1266.95 0.0529847 1252.05 0.0529847 1238.75 5.5C1225.45 10.947 1210.55 10.947 1197.25 5.5C1183.95 0.0529847 1169.05 0.0529847 1155.75 5.5C1142.45 10.947 1127.55 10.947 1114.25 5.5C1100.95 0.0529847 1086.05 0.0529847 1072.75 5.5C1059.45 10.947 1044.55 10.947 1031.25 5.5C1017.95 0.0529847 1003.05 0.0529847 989.75 5.5C976.453 10.947 961.547 10.947 948.25 5.5C934.953 0.0529847 920.047 0.0529847 906.75 5.5C893.453 10.947 878.547 10.947 865.25 5.5C851.953 0.0529847 837.047 0.0529847 823.75 5.5C810.453 10.947 795.547 10.947 782.25 5.5C768.953 0.0529847 754.047 0.0529847 740.75 5.5C727.453 10.947 712.547 10.947 699.25 5.5C685.953 0.0529847 671.047 0.0529847 657.75 5.5C644.453 10.947 629.547 10.947 616.25 5.5C602.953 0.0529847 588.047 0.0529847 574.75 5.5C561.453 10.947 546.547 10.947 533.25 5.5C519.953 0.0529847 505.047 0.0529847 491.75 5.5C478.453 10.947 463.547 10.947 450.25 5.5C436.953 0.0529847 422.047 0.0529847 408.75 5.5C395.453 10.947 380.547 10.947 367.25 5.5C353.953 0.0529847 339.047 0.0529847 325.75 5.5C312.453 10.947 297.547 10.947 284.25 5.5C270.953 0.0529847 256.047 0.0529847 242.75 5.5C229.453 10.947 214.547 10.947 201.25 5.5C187.953 0.0529847 173.047 0.0529847 159.75 5.5C146.453 10.947 131.547 10.947 118.25 5.5C104.953 0.0529847 90.0471 0.0529847 76.75 5.5C63.4529 10.947 48.5471 10.947 35.25 5.5C21.9529 0.0529847 7.04713 0.0529847 -6.25 5.5C-19.5471 10.947 -34.4529 10.947 -47.75 5.5Z" fill="#183439"/>
</svg>
