<svg width="146" height="142" viewBox="0 0 146 142" fill="none" xmlns="http://www.w3.org/2000/svg">
<rect x="36.2031" y="63.2842" width="41.0422" height="19.153" rx="9.57652" transform="rotate(45 36.2031 63.2842)" fill="#CFAF9D"/>
<rect width="65.28" height="19.153" rx="9.57652" transform="matrix(-0.707107 0.707107 0.707107 0.707107 84.6289 46.1455)" fill="#CFAF9D"/>
<path d="M6.43598 114.991C5.50797 116.598 4.56303 118.429 5.01981 120.239C5.39803 121.711 6.60294 122.77 7.80367 123.767L22.5479 136.111C24.5059 137.747 26.7034 139.46 29.274 139.368C32.7051 139.226 35.0004 135.9 36.7315 132.937L73.1728 70.5046C74.5446 68.3893 75.6064 66.0885 76.3261 63.6717C76.681 62.4609 76.7761 61.1882 76.6052 59.9365C76.4343 58.6848 76.0013 57.4821 75.3344 56.4068C73.8091 54.2322 71.184 53.1715 68.698 52.2215L55.0243 47.0059C53.2566 46.1953 51.3476 45.7389 49.406 45.6627C44.5198 45.7936 42.6583 51.3909 40.6456 54.9297C37.8499 59.772 35.0806 64.6329 32.3378 69.5125L15.5635 98.9708L6.43598 114.991Z" fill="#BCA28E"/>
<path d="M139.451 114.991C140.379 116.598 141.324 118.429 140.867 120.239C140.489 121.711 139.284 122.77 138.083 123.767L123.339 136.111C121.381 137.747 119.183 139.46 116.613 139.368C113.182 139.226 110.886 135.9 109.155 132.937L72.7139 70.5046C71.3421 68.3893 70.2803 66.0885 69.5606 63.6717C69.2057 62.4609 69.1106 61.1882 69.2815 59.9365C69.4524 58.6848 69.8854 57.4821 70.5523 56.4068C72.0776 54.2322 74.7027 53.1715 77.1888 52.2215L90.8624 47.0059C92.6301 46.1953 94.5391 45.7389 96.4808 45.6627C101.367 45.7936 103.228 51.3909 105.241 54.9297C108.037 59.772 110.806 64.6329 113.549 69.5125L130.323 98.9708L139.451 114.991Z" fill="#BCA28E"/>
<path fill-rule="evenodd" clip-rule="evenodd" d="M67.8532 0.0819582C82.0957 -0.692945 96.4042 4.0325 106.582 14.0287C116.844 24.1076 121.534 38.3842 121.499 52.7703C121.465 67.1196 117.146 81.8249 106.396 91.3253C96.1257 100.401 81.5284 101.058 67.8532 100.179C55.238 99.368 43.3801 95.1077 33.9647 86.6699C23.9359 77.6822 15.1183 66.2386 14.9526 52.7703C14.7853 39.1841 23.4945 27.6124 33.1198 18.0256C42.7192 8.46477 54.327 0.817887 67.8532 0.0819582Z" fill="#F5CCB6"/>
<rect x="55.6816" y="40.8857" width="30.2842" height="14.1326" rx="7.06631" transform="rotate(45 55.6816 40.8857)" fill="#BCA28E"/>
<rect width="48.1687" height="14.1326" rx="7.06631" transform="matrix(-0.707107 0.707107 0.707107 0.707107 91.4121 28.2393)" fill="#BCA28E"/>
</svg>
