<svg width="138" height="140" viewBox="0 0 138 140" fill="none" xmlns="http://www.w3.org/2000/svg">
<path d="M124.39 133.87C133.977 129.378 131.909 119.732 132.993 110.244C134.415 98.0774 135.56 85.9146 136.427 73.7559C136.661 70.5403 140.429 25.8165 135.393 26.0006L97.8957 27.3875C96.2346 27.3846 94.63 27.8302 93.3854 28.6399C92.1409 29.4497 91.3425 30.5674 91.1425 31.7812L89.1422 60.1447C88.9532 61.3378 88.1835 62.4401 86.9758 63.2478C85.7682 64.0555 84.2044 64.5141 82.5731 64.5387C73.6807 65.0132 64.7883 65.2792 55.8959 65.3364C54.2435 65.2858 52.6212 65.6746 51.3262 66.4318C50.0312 67.189 49.1501 68.264 48.8432 69.4602C47.3537 78.3215 46.1916 87.195 45.3579 96.0809C45.1716 97.2292 44.441 98.2922 43.2941 99.0825C42.1472 99.8729 40.658 100.34 39.0891 100.401L11.8616 102.586C10.3702 102.658 8.95187 103.088 7.82521 103.811C6.69855 104.534 5.92639 105.509 5.62627 106.587L0.0568542 135.073C-0.493362 137.871 3.02492 140.228 7.37663 139.982C32.2031 138.62 103.781 136.718 111.651 136.386C116.12 136.367 120.508 135.501 124.39 133.87Z" fill="#ECC889"/>
<path d="M46.0602 31.714C48.5098 32.6191 51.6662 33.5243 53.5011 35.3345C57.5287 39.3986 57.7029 45.7797 60.5011 50.4411C61.1984 51.654 61.8131 53.0298 62.6021 54.1521C63.7398 55.7995 64.5286 54.7587 65.5745 53.4643C67.3268 51.2196 67.8497 48.4589 68.3268 45.6982C68.8039 42.9376 69.1984 40.3398 69.7214 37.7512C70.336 34.8185 72.52 33.8682 75.153 32.9178C77.4192 32.0127 79.6941 31.2796 81.9694 30.5012C82.9328 30.1572 85.4744 29.9852 85.9147 28.9533C86.4377 27.6499 84.4192 27.0526 83.5476 26.6181C81.0155 25.4958 78.2079 24.9798 75.7583 23.9027C72.96 22.6084 71.9143 20.8886 70.8592 18.2094C68.85 12.8601 69.0244 7.15777 67.0151 1.91706C66.483 0.713234 65.7857 -0.581046 64.648 0.278828C63.5104 1.1387 62.7214 3.8178 61.8957 4.94016C59.7121 8.22579 59.0972 12.2809 57.5284 15.9014C56.7394 17.6302 56.0329 20.5628 54.5467 21.7757C52.8861 23.1605 49.6477 23.4139 47.6384 23.7579C44.3998 24.3643 38.354 23.8846 38.0146 26.6995C37.6751 29.5145 43.3446 30.7636 46.0602 31.714Z" fill="#BCA28E"/>
</svg>
