<svg width="78" height="78" viewBox="0 0 78 78" fill="none" xmlns="http://www.w3.org/2000/svg">
<path fill-rule="evenodd" clip-rule="evenodd" d="M73.8493 24.5457C59.2097 51.7676 29.9657 62.8348 2.80431 47.5095C1.90011 46.9992 0.753471 47.3183 0.243159 48.2113C-0.267152 49.1203 0.0518267 50.2685 0.956035 50.7788C30.0693 67.2204 61.4678 55.4993 77.1599 26.3318C77.6511 25.4228 77.3082 24.2744 76.3944 23.78C75.4807 23.3016 74.3404 23.6367 73.8493 24.5457Z" fill="#183439"/>
<path d="M25.661 35.8348C28.6851 35.8348 31.1366 33.3833 31.1366 30.3593C31.1366 27.3352 28.6851 24.8838 25.661 24.8838C22.637 24.8838 20.1855 27.3352 20.1855 30.3593C20.1855 33.3833 22.637 35.8348 25.661 35.8348Z" fill="#183439"/>
<path d="M48.3294 30.0104C51.2944 30.0104 53.698 27.6069 53.698 24.6419C53.698 21.677 51.2944 19.2734 48.3294 19.2734C45.3645 19.2734 42.9609 21.677 42.9609 24.6419C42.9609 27.6069 45.3645 30.0104 48.3294 30.0104Z" fill="#183439"/>
</svg>
