<svg width="1660" height="500" viewBox="0 0 1660 500" fill="none" xmlns="http://www.w3.org/2000/svg">
<path d="M62.25 5.15332L57.2313 3.09746C47.1503 -1.03211 35.8497 -1.03211 25.7687 3.09746C10.1815 9.48257 0 24.656 0 41.5003V518.653H1660V41.5003C1660 24.656 1649.82 9.48257 1634.23 3.09746C1624.15 -1.03211 1612.85 -1.03211 1602.77 3.09746L1597.75 5.15332C1584.45 10.6003 1569.55 10.6003 1556.25 5.15332C1542.95 -0.293695 1528.05 -0.293695 1514.75 5.15332C1501.45 10.6003 1486.55 10.6003 1473.25 5.15332C1459.95 -0.293695 1445.05 -0.293695 1431.75 5.15332C1418.45 10.6003 1403.55 10.6003 1390.25 5.15332C1376.95 -0.293695 1362.05 -0.293695 1348.75 5.15332C1335.45 10.6003 1320.55 10.6003 1307.25 5.15332C1293.95 -0.293695 1279.05 -0.293695 1265.75 5.15332C1252.45 10.6003 1237.55 10.6003 1224.25 5.15332C1210.95 -0.293695 1196.05 -0.293695 1182.75 5.15332C1169.45 10.6003 1154.55 10.6003 1141.25 5.15332C1127.95 -0.293695 1113.05 -0.293695 1099.75 5.15332C1086.45 10.6003 1071.55 10.6003 1058.25 5.15332C1044.95 -0.293695 1030.05 -0.293695 1016.75 5.15332C1003.45 10.6003 988.547 10.6003 975.25 5.15332C961.953 -0.293695 947.047 -0.293695 933.75 5.15332C920.453 10.6003 905.547 10.6003 892.25 5.15332C878.953 -0.293695 864.047 -0.293695 850.75 5.15332C837.453 10.6003 822.547 10.6003 809.25 5.15332C795.953 -0.293695 781.047 -0.293695 767.75 5.15332C754.453 10.6003 739.547 10.6003 726.25 5.15332C712.953 -0.293695 698.047 -0.293695 684.75 5.15332C671.453 10.6003 656.547 10.6003 643.25 5.15332C629.953 -0.293695 615.047 -0.293695 601.75 5.15332C588.453 10.6003 573.547 10.6003 560.25 5.15332C546.953 -0.293695 532.047 -0.293695 518.75 5.15332C505.453 10.6003 490.547 10.6003 477.25 5.15332C463.953 -0.293695 449.047 -0.293695 435.75 5.15332C422.453 10.6003 407.547 10.6003 394.25 5.15332C380.953 -0.293695 366.047 -0.293695 352.75 5.15332C339.453 10.6003 324.547 10.6003 311.25 5.15332C297.953 -0.293695 283.047 -0.293695 269.75 5.15332C256.453 10.6003 241.547 10.6003 228.25 5.15332C214.953 -0.293695 200.047 -0.293695 186.75 5.15332C173.453 10.6003 158.547 10.6003 145.25 5.15332C131.953 -0.293695 117.047 -0.293695 103.75 5.15332C90.4529 10.6003 75.5471 10.6003 62.25 5.15332Z" fill="#CBECF7"/>
</svg>
