<svg width="623" height="591" viewBox="0 0 623 591" fill="none" xmlns="http://www.w3.org/2000/svg">
<path opacity="0.24" fill-rule="evenodd" clip-rule="evenodd" d="M310.569 0.292358C353.275 -2.78851 393.927 19.0066 430.767 40.8584C466.042 61.782 489.619 95.8002 519.314 124.11C553.166 156.383 605.543 175.503 619.013 220.325C632.369 264.764 609.612 313.049 588.514 354.368C569.448 391.707 530.569 412.906 504.09 445.395C477.936 477.484 469.681 526.301 432.916 545.276C396.204 564.223 351.34 538.672 310.569 545.274C260.815 553.33 215.723 603.12 167.562 588.242C121.421 573.988 100.64 518.418 80.848 474.308C63.1774 434.926 72.9027 389.292 59.8325 348.148C45.3621 302.597 -0.813719 267.635 0.0109048 219.841C0.833477 172.166 27.3348 124.226 64.2162 94.073C100.581 64.3424 154.551 74.3235 198.431 57.6195C238.158 42.4963 268.179 3.35048 310.569 0.292358Z" fill="#C4EA98"/>
</svg>
