<svg width="1380" height="803" viewBox="0 0 1380 803" fill="none" xmlns="http://www.w3.org/2000/svg">
<path d="M-47.75 797.5L-52.7687 799.556C-62.8497 803.685 -74.1503 803.685 -84.2313 799.556C-99.8185 793.171 -110 777.997 -110 761.153V-130H1550V761.153C1550 777.997 1539.82 793.171 1524.23 799.556C1514.15 803.685 1502.85 803.685 1492.77 799.556L1487.75 797.5C1474.45 792.053 1459.55 792.053 1446.25 797.5C1432.95 802.947 1418.05 802.947 1404.75 797.5C1391.45 792.053 1376.55 792.053 1363.25 797.5C1349.95 802.947 1335.05 802.947 1321.75 797.5C1308.45 792.053 1293.55 792.053 1280.25 797.5C1266.95 802.947 1252.05 802.947 1238.75 797.5C1225.45 792.053 1210.55 792.053 1197.25 797.5C1183.95 802.947 1169.05 802.947 1155.75 797.5C1142.45 792.053 1127.55 792.053 1114.25 797.5C1100.95 802.947 1086.05 802.947 1072.75 797.5C1059.45 792.053 1044.55 792.053 1031.25 797.5C1017.95 802.947 1003.05 802.947 989.75 797.5C976.453 792.053 961.547 792.053 948.25 797.5C934.953 802.947 920.047 802.947 906.75 797.5C893.453 792.053 878.547 792.053 865.25 797.5C851.953 802.947 837.047 802.947 823.75 797.5C810.453 792.053 795.547 792.053 782.25 797.5C768.953 802.947 754.047 802.947 740.75 797.5C727.453 792.053 712.547 792.053 699.25 797.5C685.953 802.947 671.047 802.947 657.75 797.5C644.453 792.053 629.547 792.053 616.25 797.5C602.953 802.947 588.047 802.947 574.75 797.5C561.453 792.053 546.547 792.053 533.25 797.5C519.953 802.947 505.047 802.947 491.75 797.5C478.453 792.053 463.547 792.053 450.25 797.5C436.953 802.947 422.047 802.947 408.75 797.5C395.453 792.053 380.547 792.053 367.25 797.5C353.953 802.947 339.047 802.947 325.75 797.5C312.453 792.053 297.547 792.053 284.25 797.5C270.953 802.947 256.047 802.947 242.75 797.5C229.453 792.053 214.547 792.053 201.25 797.5C187.953 802.947 173.047 802.947 159.75 797.5C146.453 792.053 131.547 792.053 118.25 797.5C104.953 802.947 90.0471 802.947 76.75 797.5C63.4529 792.053 48.5471 792.053 35.25 797.5C21.9529 802.947 7.04713 802.947 -6.25 797.5C-19.5471 792.053 -34.4529 792.053 -47.75 797.5Z" fill="#183439"/>
</svg>
