<svg width="169" height="137" viewBox="0 0 169 137" fill="none" xmlns="http://www.w3.org/2000/svg">
<path opacity="0.3" d="M140.378 4.44445C119.743 -3.96418 99.5423 0.288302 80.9165 11.0879C60.539 22.9306 41.2707 39.09 23.8501 54.8161C9.3866 67.9425 -0.143012 79.6408 0.00162377 99.7477C0.290895 139.865 52.7935 142.77 79.9207 130.831C101.552 121.203 119.229 103.134 136.633 87.6964C151.097 74.8588 166.75 62.5828 168.952 42.1549C169.016 41.6596 169.016 41.1579 168.952 40.6625C168.968 40.5024 168.968 40.3412 168.952 40.1812C168.502 22.385 156.127 10.8472 140.378 4.44445ZM91.6676 90.296C80.6914 99.9242 69.1688 109.552 55.9427 115.971C45.8022 120.994 35.3566 125.76 31.355 112.553C23.5125 86.6693 50.3504 67.8783 67.4817 53.8372C78.1204 45.1076 89.3214 37.0681 100.571 29.1569C106.969 24.4977 113.923 20.6491 121.27 17.6993C134.914 12.3717 138.16 23.38 138.674 33.3773C135.685 58.5069 109.201 74.8267 91.6198 90.296H91.6676Z" fill="#F5CCB6"/>
</svg>
