<svg width="515" height="502" viewBox="0 0 515 502" fill="none" xmlns="http://www.w3.org/2000/svg">
<path opacity="0.2" d="M187.4 51.6876C190.913 32.0345 196.845 9.09282 215.42 1.81099C233.996 -5.47083 257.177 10.2673 264.279 30.077C271.382 49.8867 267.947 71.7322 265.216 92.7164C262.484 113.701 260.767 136.094 270.913 154.494C287.148 183.935 326.406 191.06 359.734 187.302C393.061 183.543 426.31 172.503 459.325 178.376C492.34 184.248 524.184 217.134 512.554 248.845C501.705 278.364 463.461 284.863 432.085 285.176C400.709 285.489 363.324 287.525 347.246 314.538C335.382 334.348 340.768 360.03 350.212 381.092C359.656 402.155 372.846 422.121 376.436 444.985C380.026 467.848 369.88 495.409 347.48 500.968C321.723 507.467 299.089 482.098 288.943 457.434C278.796 432.77 272.474 404.191 250.777 388.766C223.928 369.739 186.152 380.936 158.21 398.162C130.268 415.387 105.292 439.66 73.2922 447.412C41.2919 455.163 -0.464392 436.137 0.00390418 403.173C0.472201 373.967 31.2237 356.193 58.541 345.31C85.8582 334.426 117.312 320.332 122.541 291.596C128.161 260.825 99.8291 235.534 74.9314 216.742C50.0336 197.951 22.7163 170.546 31.2237 140.401C40.2774 108.533 85.8582 101.251 113.878 119.416C133.624 132.336 145.644 153.633 157.195 173.286C181.937 148.779 181.312 86.2959 187.4 51.6876Z" fill="#D9AD99"/>
</svg>
