<svg width="245" height="203" viewBox="0 0 245 203" fill="none" xmlns="http://www.w3.org/2000/svg">
<g opacity="0.2">
<path d="M96.4385 64.3769C97.0858 52.0135 99.3896 39.7928 103.288 28.0414C108.44 13.2961 122.158 -17.5712 130.555 13.0886C134.536 27.7019 135.291 43.8991 134.914 58.965C154.405 39.9925 179.233 27.4263 206.072 22.9502C208.449 22.5542 211.242 22.3657 212.884 24.1193C221.545 33.3398 182.409 62.7929 176.012 67.1298C199.052 67.6766 222.979 70.3353 242.585 82.4408C243.717 83.1573 244.962 84.0812 245 85.4199C244.944 85.9717 244.773 86.5054 244.496 86.9863C244.22 87.4672 243.845 87.8844 243.396 88.2106C235.848 95.1873 225.168 97.6388 214.922 98.5438C204.675 99.4489 194.165 98.9396 184.202 101.202C197.991 106.339 210.495 114.415 220.847 124.867C225.923 129.995 230.697 136.35 230.546 143.553C223.149 147.098 214.412 144.778 206.562 142.421L161.275 128.807C165.804 138.499 170.37 148.342 172.144 158.977C173.918 169.612 172.578 181.057 166.162 189.618C165.381 190.887 164.189 191.852 162.785 192.352C159.86 193.125 157.312 190.335 155.633 187.827C146.192 173.797 138.033 158.948 131.253 143.459C127.045 157.827 122.837 172.233 116.723 185.866C113.308 193.408 107.93 201.742 99.6275 202.233C97.7551 202.425 95.8766 201.929 94.3439 200.837C92.0796 198.952 91.589 195.878 91.287 193.031C89.1491 173.051 88.8396 152.917 90.3624 132.88L43.1881 163.842C39.0367 166.557 34.7155 169.348 29.8283 170.159C24.941 170.969 19.2424 169.197 16.9591 164.785C13.789 158.619 18.5442 151.397 23.4503 146.475C39.5273 130.316 59.6991 118.984 79.6067 107.84C65.7751 105.143 51.9436 102.428 38.2253 99.2226C26.6959 96.5451 14.8457 93.3207 5.69388 85.8161C1.24062 82.1769 -2.3635 75.0116 1.91993 71.165C2.91396 70.3354 4.05261 69.6961 5.27874 69.2794C30.1868 59.8514 58.0008 68.7325 82.6447 78.9147C71.036 65.1533 60.5009 50.5222 51.1322 35.1502C48.6792 31.1339 46.245 26.8535 46.0374 22.1584C45.8644 20.2943 46.2943 18.4238 47.2639 16.822C48.0879 15.7861 49.1233 14.9377 50.3011 14.3329C51.479 13.7282 52.7722 13.3811 54.0948 13.3148C63.624 12.2589 72.2098 18.9716 78.6255 26.2311C86.9581 35.7055 93.5851 46.5509 98.2123 58.2862" fill="#ECC889"/>
<path d="M137.914 80.8949C140.099 80.4364 142.367 80.5733 144.481 81.291C147.84 82.7995 149.142 86.9478 149.746 90.4739C150.522 95.2092 150.724 100.021 150.35 104.804C150.332 105.866 150.074 106.911 149.595 107.859C148.496 109.281 146.91 110.248 145.142 110.574C132.955 114.331 120.36 116.603 107.629 117.344C105.506 117.635 103.343 117.382 101.345 116.608C98.1371 115.081 96.6841 111.329 95.8916 107.878C94.9285 103.723 94.4411 99.4718 94.4386 95.2067C94.3628 93.6555 94.6201 92.106 95.1934 90.6624C97.722 85.3639 106.213 85.6656 111.157 85.0056C120.083 83.5348 128.951 81.9886 137.914 80.8949Z" fill="#F7ECE2"/>
</g>
</svg>
